<svg xmlns="http://www.w3.org/2000/svg" version="1.1" xmlns:xlink="http://www.w3.org/1999/xlink" xmlns:svgjs="http://svgjs.dev/svgjs" width="1440" height="560" preserveAspectRatio="none" viewBox="0 0 1440 560"><g mask="url(&quot;#SvgjsMask1000&quot;)" fill="none"><rect width="1440" height="560" x="0" y="0" fill="#0e2a47"></rect><path d="M1004.6 467.8L1004.6 470.59L1012.03 470.59L1012.03 467.8zM1007.08 469.19 a4.95 4.95 0 1 0 9.9 0 a4.95 4.95 0 1 0 -9.9 0zM1001.07 488.33L1000 490.91L1021.53 499.83L1022.6 497.25zM1017.12 498.54 a4.95 4.95 0 1 0 9.9 0 a4.95 4.95 0 1 0 -9.9 0zM989.95 505.95L987.97 507.93L995.65 515.6L997.63 513.63zM991.69 514.62 a4.95 4.95 0 1 0 9.9 0 a4.95 4.95 0 1 0 -9.9 0zM972.94 517.97L970.36 519.04L978.93 539.74L981.51 538.67zM975.27 539.2 a4.95 4.95 0 1 0 9.9 0 a4.95 4.95 0 1 0 -9.9 0zM952.62 522.57L949.82 522.57L949.82 535.92L952.62 535.92zM946.27 535.92 a4.95 4.95 0 1 0 9.9 0 a4.95 4.95 0 1 0 -9.9 0zM932.08 519.04L929.5 517.97L924.62 529.77L927.2 530.84zM920.96 530.31 a4.95 4.95 0 1 0 9.9 0 a4.95 4.95 0 1 0 -9.9 0zM914.47 507.93L912.49 505.95L907.26 511.17L909.24 513.15zM903.3 512.16 a4.95 4.95 0 1 0 9.9 0 a4.95 4.95 0 1 0 -9.9 0zM902.44 490.91L901.37 488.33L892.55 491.98L893.62 494.57zM888.13 493.27 a4.95 4.95 0 1 0 9.9 0 a4.95 4.95 0 1 0 -9.9 0zM897.84 470.59L897.84 467.8L874.9 467.8L874.9 470.59zM869.95 469.19 a4.95 4.95 0 1 0 9.9 0 a4.95 4.95 0 1 0 -9.9 0zM901.37 450.06L902.44 447.48L894.49 444.18L893.42 446.76zM889 445.47 a4.95 4.95 0 1 0 9.9 0 a4.95 4.95 0 1 0 -9.9 0zM912.49 432.44L914.47 430.46L899.71 415.7L897.73 417.68zM893.77 416.69 a4.95 4.95 0 1 0 9.9 0 a4.95 4.95 0 1 0 -9.9 0zM929.5 420.41L932.08 419.35L927.88 409.2L925.3 410.27zM921.64 409.74 a4.95 4.95 0 1 0 9.9 0 a4.95 4.95 0 1 0 -9.9 0zM949.82 415.82L952.62 415.82L952.62 394.72L949.82 394.72zM946.27 394.72 a4.95 4.95 0 1 0 9.9 0 a4.95 4.95 0 1 0 -9.9 0zM970.36 419.35L972.94 420.41L976.99 410.62L974.41 409.55zM970.75 410.09 a4.95 4.95 0 1 0 9.9 0 a4.95 4.95 0 1 0 -9.9 0zM987.97 430.46L989.95 432.44L997.69 424.7L995.71 422.73zM991.75 423.71 a4.95 4.95 0 1 0 9.9 0 a4.95 4.95 0 1 0 -9.9 0zM1000 447.48L1001.07 450.06L1013.57 444.88L1012.5 442.3zM1008.08 443.59 a4.95 4.95 0 1 0 9.9 0 a4.95 4.95 0 1 0 -9.9 0zM897.82 469.19 a53.4 53.4 0 1 0 106.8 0 a53.4 53.4 0 1 0 -106.8 0z" fill="#488fdb"></path><path d="M1003.3 457.43 A52.3952 52.3952 0 0 1 935.48 520.21M935.48 520.21 A106.7904 106.7904 0 0 0 1003.3 457.43" fill="#2672c3" fill-rule="nonzero"></path><path d="M972.5 496.29 a10.68 10.68 0 1 0 21.36 0 a10.68 10.68 0 1 0 -21.36 0zM901.64 451.39 a9.08 9.08 0 1 0 18.16 0 a9.08 9.08 0 1 0 -18.16 0zM955.04 422.78 a5.87 5.87 0 1 0 11.74 0 a5.87 5.87 0 1 0 -11.74 0zM938.77 452.96 a10.68 10.68 0 1 0 21.36 0 a10.68 10.68 0 1 0 -21.36 0zM942.4 492.64 a9.61 9.61 0 1 0 19.22 0 a9.61 9.61 0 1 0 -19.22 0zM956.69 518.13 a3.2 3.2 0 1 0 6.4 0 a3.2 3.2 0 1 0 -6.4 0zM928.58 424.72 a5.34 5.34 0 1 0 10.68 0 a5.34 5.34 0 1 0 -10.68 0zM991 473.71 a3.74 3.74 0 1 0 7.48 0 a3.74 3.74 0 1 0 -7.48 0zM971.72 440.95 a10.68 10.68 0 1 0 21.36 0 a10.68 10.68 0 1 0 -21.36 0zM965.66 468.1 a2.67 2.67 0 1 0 5.34 0 a2.67 2.67 0 1 0 -5.34 0z" fill="#2672c3" fill-rule="nonzero"></path><path d="M117.38 489.94L117.38 491.8L123.53 491.8L123.53 489.94zM120.23 490.87 a3.3 3.3 0 1 0 6.6 0 a3.3 3.3 0 1 0 -6.6 0zM115.03 503.63L114.32 505.35L129.48 511.63L130.19 509.91zM126.54 510.77 a3.3 3.3 0 1 0 6.6 0 a3.3 3.3 0 1 0 -6.6 0zM107.62 515.37L106.3 516.69L111.84 522.23L113.16 520.91zM109.2 521.57 a3.3 3.3 0 1 0 6.6 0 a3.3 3.3 0 1 0 -6.6 0zM96.28 523.39L94.56 524.1L101.15 540.02L102.87 539.31zM98.71 539.66 a3.3 3.3 0 1 0 6.6 0 a3.3 3.3 0 1 0 -6.6 0zM82.73 526.45L80.87 526.45L80.87 539.1L82.73 539.1zM78.5 539.1 a3.3 3.3 0 1 0 6.6 0 a3.3 3.3 0 1 0 -6.6 0zM69.04 524.1L67.32 523.39L63.21 533.3L64.94 534.02zM60.78 533.66 a3.3 3.3 0 1 0 6.6 0 a3.3 3.3 0 1 0 -6.6 0zM57.3 516.69L55.98 515.37L51.58 519.77L52.9 521.09zM48.94 520.43 a3.3 3.3 0 1 0 6.6 0 a3.3 3.3 0 1 0 -6.6 0zM49.28 505.35L48.57 503.63L44.21 505.43L44.92 507.15zM41.26 506.29 a3.3 3.3 0 1 0 6.6 0 a3.3 3.3 0 1 0 -6.6 0zM46.21 491.8L46.21 489.94L31.36 489.94L31.36 491.8zM28.06 490.87 a3.3 3.3 0 1 0 6.6 0 a3.3 3.3 0 1 0 -6.6 0zM48.57 478.11L49.28 476.39L42.41 473.54L41.69 475.27zM38.75 474.4 a3.3 3.3 0 1 0 6.6 0 a3.3 3.3 0 1 0 -6.6 0zM55.98 466.37L57.3 465.05L51.95 459.7L50.63 461.02zM47.99 460.36 a3.3 3.3 0 1 0 6.6 0 a3.3 3.3 0 1 0 -6.6 0zM67.32 458.35L69.04 457.64L66.72 452.04L65 452.75zM62.56 452.39 a3.3 3.3 0 1 0 6.6 0 a3.3 3.3 0 1 0 -6.6 0zM80.87 455.28L82.73 455.28L82.73 446.63L80.87 446.63zM78.5 446.63 a3.3 3.3 0 1 0 6.6 0 a3.3 3.3 0 1 0 -6.6 0zM94.56 457.64L96.28 458.35L100.38 448.45L98.66 447.73zM96.22 448.09 a3.3 3.3 0 1 0 6.6 0 a3.3 3.3 0 1 0 -6.6 0zM106.3 465.05L107.62 466.37L114.16 459.83L112.84 458.51zM110.2 459.17 a3.3 3.3 0 1 0 6.6 0 a3.3 3.3 0 1 0 -6.6 0zM114.32 476.39L115.03 478.11L128.02 472.73L127.31 471.01zM124.36 471.87 a3.3 3.3 0 1 0 6.6 0 a3.3 3.3 0 1 0 -6.6 0zM46.2 490.87 a35.6 35.6 0 1 0 71.2 0 a35.6 35.6 0 1 0 -71.2 0z" fill="#488fdb"></path><path d="M111.46 471.19 A34.5968 34.5968 0 0 1 84.08 526.39M84.08 526.39 A71.1936 71.1936 0 0 0 111.46 471.19" fill="#2672c3" fill-rule="nonzero"></path><path d="M61.58 504.8 a7.12 7.12 0 1 0 14.24 0 a7.12 7.12 0 1 0 -14.24 0zM46.88 485.67 a3.92 3.92 0 1 0 7.84 0 a3.92 3.92 0 1 0 -7.84 0zM102.26 479.53 a6.41 6.41 0 1 0 12.82 0 a6.41 6.41 0 1 0 -12.82 0zM69.97 469.22 a7.12 7.12 0 1 0 14.24 0 a7.12 7.12 0 1 0 -14.24 0zM78.65 493.41 a2.85 2.85 0 1 0 5.7 0 a2.85 2.85 0 1 0 -5.7 0zM60.73 476.27 a1.78 1.78 0 1 0 3.56 0 a1.78 1.78 0 1 0 -3.56 0zM85.7 505.32 a4.63 4.63 0 1 0 9.26 0 a4.63 4.63 0 1 0 -9.26 0zM94.92 465.58 a3.56 3.56 0 1 0 7.12 0 a3.56 3.56 0 1 0 -7.12 0zM81.53 519.24 a3.2 3.2 0 1 0 6.4 0 a3.2 3.2 0 1 0 -6.4 0zM98.08 516.52 a3.2 3.2 0 1 0 6.4 0 a3.2 3.2 0 1 0 -6.4 0z" fill="#2672c3" fill-rule="nonzero"></path><path d="M588.86 405.13L588.86 408.86L603.57 408.86L603.57 405.13zM596.97 407 a6.6 6.6 0 1 0 13.2 0 a6.6 6.6 0 1 0 -13.2 0zM584.16 432.51L582.73 435.95L612.02 448.08L613.45 444.64zM606.13 446.36 a6.6 6.6 0 1 0 13.2 0 a6.6 6.6 0 1 0 -13.2 0zM569.34 456L566.7 458.64L575.84 467.77L578.47 465.14zM570.56 466.46 a6.6 6.6 0 1 0 13.2 0 a6.6 6.6 0 1 0 -13.2 0zM546.65 472.03L543.21 473.46L549.39 488.39L552.84 486.96zM544.51 487.68 a6.6 6.6 0 1 0 13.2 0 a6.6 6.6 0 1 0 -13.2 0zM519.56 478.16L515.83 478.16L515.83 487.45L519.56 487.45zM511.1 487.45 a6.6 6.6 0 1 0 13.2 0 a6.6 6.6 0 1 0 -13.2 0zM492.18 473.46L488.74 472.03L479.12 495.25L482.57 496.68zM474.24 495.96 a6.6 6.6 0 1 0 13.2 0 a6.6 6.6 0 1 0 -13.2 0zM468.69 458.64L466.05 456L451.83 470.23L454.46 472.86zM446.54 471.55 a6.6 6.6 0 1 0 13.2 0 a6.6 6.6 0 1 0 -13.2 0zM452.66 435.95L451.23 432.51L425.06 443.35L426.48 446.79zM419.17 445.07 a6.6 6.6 0 1 0 13.2 0 a6.6 6.6 0 1 0 -13.2 0zM446.53 408.86L446.53 405.13L430.84 405.13L430.84 408.86zM424.24 407 a6.6 6.6 0 1 0 13.2 0 a6.6 6.6 0 1 0 -13.2 0zM451.23 381.48L452.66 378.04L438.31 372.09L436.88 375.54zM431 373.82 a6.6 6.6 0 1 0 13.2 0 a6.6 6.6 0 1 0 -13.2 0zM466.05 357.99L468.69 355.35L445.52 332.19L442.89 334.82zM437.61 333.51 a6.6 6.6 0 1 0 13.2 0 a6.6 6.6 0 1 0 -13.2 0zM488.74 341.96L492.18 340.53L488.74 332.22L485.29 333.64zM480.42 332.93 a6.6 6.6 0 1 0 13.2 0 a6.6 6.6 0 1 0 -13.2 0zM515.83 335.83L519.56 335.83L519.56 303.22L515.83 303.22zM511.1 303.22 a6.6 6.6 0 1 0 13.2 0 a6.6 6.6 0 1 0 -13.2 0zM543.21 340.53L546.65 341.96L557.93 314.73L554.49 313.3zM549.61 314.02 a6.6 6.6 0 1 0 13.2 0 a6.6 6.6 0 1 0 -13.2 0zM566.7 355.35L569.34 357.99L584.76 342.57L582.12 339.93zM576.84 341.25 a6.6 6.6 0 1 0 13.2 0 a6.6 6.6 0 1 0 -13.2 0zM582.73 378.04L584.16 381.48L613.49 369.33L612.07 365.89zM606.18 367.61 a6.6 6.6 0 1 0 13.2 0 a6.6 6.6 0 1 0 -13.2 0zM446.51 407 a71.19 71.19 0 1 0 142.38 0 a71.19 71.19 0 1 0 -142.38 0z" fill="#488fdb"></path><path d="M468.19 458.16 A70.1936 70.1936 0 0 1 498 338.58M498 338.58 A142.3872 142.3872 0 0 0 468.19 458.16" fill="#2672c3" fill-rule="nonzero"></path><path d="M491.09 416.29 a14.24 14.24 0 1 0 28.48 0 a14.24 14.24 0 1 0 -28.48 0zM448.77 392.18 a4.98 4.98 0 1 0 9.96 0 a4.98 4.98 0 1 0 -9.96 0zM479.87 365.37 a14.24 14.24 0 1 0 28.48 0 a14.24 14.24 0 1 0 -28.48 0zM552.72 389.95 a14.24 14.24 0 1 0 28.48 0 a14.24 14.24 0 1 0 -28.48 0zM457.75 429.84 a10.68 10.68 0 1 0 21.36 0 a10.68 10.68 0 1 0 -21.36 0zM528.39 356.04 a13.53 13.53 0 1 0 27.06 0 a13.53 13.53 0 1 0 -27.06 0zM537.35 446.58 a14.24 14.24 0 1 0 28.48 0 a14.24 14.24 0 1 0 -28.48 0zM489.82 447.2 a4.27 4.27 0 1 0 8.54 0 a4.27 4.27 0 1 0 -8.54 0zM517.14 445.52 a2.85 2.85 0 1 0 5.7 0 a2.85 2.85 0 1 0 -5.7 0zM507.02 462.79 a2.85 2.85 0 1 0 5.7 0 a2.85 2.85 0 1 0 -5.7 0z" fill="#2672c3" fill-rule="nonzero"></path><path d="M1030.73 155.61L1030.73 159.34L1062.86 159.34L1062.86 155.61zM1056.26 157.47 a6.6 6.6 0 1 0 13.2 0 a6.6 6.6 0 1 0 -13.2 0zM1026.03 182.99L1024.6 186.43L1036.94 191.54L1038.36 188.09zM1031.05 189.82 a6.6 6.6 0 1 0 13.2 0 a6.6 6.6 0 1 0 -13.2 0zM1011.2 206.48L1008.57 209.11L1032.77 233.31L1035.4 230.68zM1027.48 231.99 a6.6 6.6 0 1 0 13.2 0 a6.6 6.6 0 1 0 -13.2 0zM988.52 222.51L985.08 223.94L997.07 252.9L1000.52 251.47zM992.2 252.19 a6.6 6.6 0 1 0 13.2 0 a6.6 6.6 0 1 0 -13.2 0zM961.43 228.64L957.7 228.64L957.7 240.5L961.43 240.5zM952.96 240.5 a6.6 6.6 0 1 0 13.2 0 a6.6 6.6 0 1 0 -13.2 0zM934.05 223.94L930.61 222.51L920.3 247.38L923.75 248.81zM915.43 248.1 a6.6 6.6 0 1 0 13.2 0 a6.6 6.6 0 1 0 -13.2 0zM910.56 209.11L907.92 206.48L899.87 214.53L902.51 217.16zM894.59 215.84 a6.6 6.6 0 1 0 13.2 0 a6.6 6.6 0 1 0 -13.2 0zM894.52 186.43L893.1 182.99L869.2 192.89L870.62 196.33zM863.31 194.61 a6.6 6.6 0 1 0 13.2 0 a6.6 6.6 0 1 0 -13.2 0zM888.39 159.34L888.39 155.61L874.85 155.61L874.85 159.34zM868.25 157.47 a6.6 6.6 0 1 0 13.2 0 a6.6 6.6 0 1 0 -13.2 0zM893.1 131.96L894.52 128.52L869.4 118.11L867.98 121.55zM862.09 119.83 a6.6 6.6 0 1 0 13.2 0 a6.6 6.6 0 1 0 -13.2 0zM907.92 108.47L910.56 105.83L889.78 85.06L887.15 87.69zM881.86 86.37 a6.6 6.6 0 1 0 13.2 0 a6.6 6.6 0 1 0 -13.2 0zM930.61 92.43L934.05 91.01L930.22 81.77L926.78 83.2zM921.9 82.48 a6.6 6.6 0 1 0 13.2 0 a6.6 6.6 0 1 0 -13.2 0zM957.7 86.3L961.43 86.3L961.43 64.07L957.7 64.07zM952.96 64.07 a6.6 6.6 0 1 0 13.2 0 a6.6 6.6 0 1 0 -13.2 0zM985.08 91.01L988.52 92.43L997.08 71.76L993.64 70.33zM988.76 71.04 a6.6 6.6 0 1 0 13.2 0 a6.6 6.6 0 1 0 -13.2 0zM1008.57 105.83L1011.2 108.47L1018.2 101.47L1015.56 98.84zM1010.28 100.15 a6.6 6.6 0 1 0 13.2 0 a6.6 6.6 0 1 0 -13.2 0zM1024.6 128.52L1026.03 131.96L1053.79 120.46L1052.36 117.02zM1046.48 118.74 a6.6 6.6 0 1 0 13.2 0 a6.6 6.6 0 1 0 -13.2 0zM888.37 157.47 a71.19 71.19 0 1 0 142.38 0 a71.19 71.19 0 1 0 -142.38 0z" fill="#488fdb"></path><path d="M950.8 86.82 A70.1936 70.1936 0 0 1 1025.19 185.07M1025.19 185.07 A142.3872 142.3872 0 0 0 950.8 86.82" fill="#2672c3" fill-rule="nonzero"></path><path d="M980.79 125.2 a14.24 14.24 0 1 0 28.48 0 a14.24 14.24 0 1 0 -28.48 0zM946.24 192.06 a14.24 14.24 0 1 0 28.48 0 a14.24 14.24 0 1 0 -28.48 0zM994.25 176 a14.24 14.24 0 1 0 28.48 0 a14.24 14.24 0 1 0 -28.48 0zM958.82 154.35 a9.97 9.97 0 1 0 19.94 0 a9.97 9.97 0 1 0 -19.94 0zM901.98 168.57 a14.24 14.24 0 1 0 28.48 0 a14.24 14.24 0 1 0 -28.48 0zM919.83 125.96 a14.24 14.24 0 1 0 28.48 0 a14.24 14.24 0 1 0 -28.48 0zM967.69 222.27 a2.85 2.85 0 1 0 5.7 0 a2.85 2.85 0 1 0 -5.7 0zM918.84 212.92 a4.27 4.27 0 1 0 8.54 0 a4.27 4.27 0 1 0 -8.54 0zM995.48 210.19 a4.27 4.27 0 1 0 8.54 0 a4.27 4.27 0 1 0 -8.54 0zM972.49 94.93 a5.7 5.7 0 1 0 11.4 0 a5.7 5.7 0 1 0 -11.4 0z" fill="#2672c3" fill-rule="nonzero"></path><path d="M146.95 196.5L146.95 199.3L171.33 199.3L171.33 196.5zM166.38 197.9 a4.95 4.95 0 1 0 9.9 0 a4.95 4.95 0 1 0 -9.9 0zM143.42 217.03L142.35 219.62L150.31 222.91L151.38 220.33zM145.89 221.62 a4.95 4.95 0 1 0 9.9 0 a4.95 4.95 0 1 0 -9.9 0zM132.31 234.65L130.33 236.63L137.36 243.66L139.34 241.69zM133.4 242.68 a4.95 4.95 0 1 0 9.9 0 a4.95 4.95 0 1 0 -9.9 0zM115.29 246.68L112.71 247.75L120.39 266.29L122.97 265.22zM116.73 265.75 a4.95 4.95 0 1 0 9.9 0 a4.95 4.95 0 1 0 -9.9 0zM94.97 251.27L92.18 251.27L92.18 262.01L94.97 262.01zM88.62 262.01 a4.95 4.95 0 1 0 9.9 0 a4.95 4.95 0 1 0 -9.9 0zM74.44 247.75L71.86 246.68L66.35 259.97L68.93 261.04zM62.69 260.51 a4.95 4.95 0 1 0 9.9 0 a4.95 4.95 0 1 0 -9.9 0zM56.82 236.63L54.84 234.65L41.95 247.55L43.92 249.53zM37.98 248.54 a4.95 4.95 0 1 0 9.9 0 a4.95 4.95 0 1 0 -9.9 0zM44.8 219.62L43.73 217.03L19.69 226.99L20.76 229.57zM15.27 228.28 a4.95 4.95 0 1 0 9.9 0 a4.95 4.95 0 1 0 -9.9 0zM40.2 199.3L40.2 196.5L29.98 196.5L29.98 199.3zM25.03 197.9 a4.95 4.95 0 1 0 9.9 0 a4.95 4.95 0 1 0 -9.9 0zM43.73 178.76L44.8 176.18L37.88 173.32L36.81 175.9zM32.4 174.61 a4.95 4.95 0 1 0 9.9 0 a4.95 4.95 0 1 0 -9.9 0zM54.84 161.14L56.82 159.17L39.59 141.93L37.61 143.91zM33.65 142.92 a4.95 4.95 0 1 0 9.9 0 a4.95 4.95 0 1 0 -9.9 0zM71.86 149.12L74.44 148.05L66.28 128.35L63.7 129.42zM60.04 128.89 a4.95 4.95 0 1 0 9.9 0 a4.95 4.95 0 1 0 -9.9 0zM92.18 144.52L94.97 144.52L94.97 123.8L92.18 123.8zM88.62 123.8 a4.95 4.95 0 1 0 9.9 0 a4.95 4.95 0 1 0 -9.9 0zM112.71 148.05L115.29 149.12L122.03 132.85L119.45 131.78zM115.79 132.31 a4.95 4.95 0 1 0 9.9 0 a4.95 4.95 0 1 0 -9.9 0zM130.33 159.17L132.31 161.14L147.86 145.59L145.89 143.61zM141.92 144.6 a4.95 4.95 0 1 0 9.9 0 a4.95 4.95 0 1 0 -9.9 0zM142.35 176.18L143.42 178.76L162.97 170.66L161.9 168.08zM157.49 169.37 a4.95 4.95 0 1 0 9.9 0 a4.95 4.95 0 1 0 -9.9 0zM40.17 197.9 a53.4 53.4 0 1 0 106.8 0 a53.4 53.4 0 1 0 -106.8 0z" fill="#488fdb"></path><path d="M48.5 226.52 A52.3952 52.3952 0 0 1 91.21 144.55M91.21 144.55 A106.7904 106.7904 0 0 0 48.5 226.52" fill="#2672c3" fill-rule="nonzero"></path><path d="M87.76 201.99 a10.68 10.68 0 1 0 21.36 0 a10.68 10.68 0 1 0 -21.36 0zM70.61 231.67 a10.68 10.68 0 1 0 21.36 0 a10.68 10.68 0 1 0 -21.36 0zM74.13 192.77 a2.14 2.14 0 1 0 4.28 0 a2.14 2.14 0 1 0 -4.28 0zM115.22 216.92 a4.27 4.27 0 1 0 8.54 0 a4.27 4.27 0 1 0 -8.54 0zM46.27 221.74 a2.67 2.67 0 1 0 5.34 0 a2.67 2.67 0 1 0 -5.34 0zM84.45 172.45 a8.54 8.54 0 1 0 17.08 0 a8.54 8.54 0 1 0 -17.08 0zM50.53 199.05 a6.94 6.94 0 1 0 13.88 0 a6.94 6.94 0 1 0 -13.88 0zM102.85 152.29 a5.34 5.34 0 1 0 10.68 0 a5.34 5.34 0 1 0 -10.68 0zM60.85 172.06 a6.41 6.41 0 1 0 12.82 0 a6.41 6.41 0 1 0 -12.82 0zM122.92 168.03 a6.41 6.41 0 1 0 12.82 0 a6.41 6.41 0 1 0 -12.82 0z" fill="#2672c3" fill-rule="nonzero"></path><path d="M411.69 181L411.69 183.8L419.12 183.8L419.12 181zM414.17 182.4 a4.95 4.95 0 1 0 9.9 0 a4.95 4.95 0 1 0 -9.9 0zM408.16 201.54L407.1 204.12L414.87 207.34L415.94 204.76zM410.46 206.05 a4.95 4.95 0 1 0 9.9 0 a4.95 4.95 0 1 0 -9.9 0zM397.05 219.15L395.07 221.13L404.79 230.85L406.77 228.88zM400.83 229.87 a4.95 4.95 0 1 0 9.9 0 a4.95 4.95 0 1 0 -9.9 0zM380.03 231.18L377.45 232.25L380.4 239.37L382.98 238.3zM376.74 238.84 a4.95 4.95 0 1 0 9.9 0 a4.95 4.95 0 1 0 -9.9 0zM359.71 235.78L356.92 235.78L356.92 261.13L359.71 261.13zM353.37 261.13 a4.95 4.95 0 1 0 9.9 0 a4.95 4.95 0 1 0 -9.9 0zM339.18 232.25L336.6 231.18L332.69 240.61L335.27 241.68zM329.03 241.15 a4.95 4.95 0 1 0 9.9 0 a4.95 4.95 0 1 0 -9.9 0zM321.56 221.13L319.58 219.15L310.98 227.76L312.96 229.74zM307.02 228.75 a4.95 4.95 0 1 0 9.9 0 a4.95 4.95 0 1 0 -9.9 0zM309.54 204.12L308.47 201.54L286.31 210.71L287.38 213.29zM281.9 212 a4.95 4.95 0 1 0 9.9 0 a4.95 4.95 0 1 0 -9.9 0zM304.94 183.8L304.94 181L282.98 181L282.98 183.8zM278.03 182.4 a4.95 4.95 0 1 0 9.9 0 a4.95 4.95 0 1 0 -9.9 0zM308.47 163.26L309.54 160.68L297.14 155.55L296.07 158.13zM291.65 156.84 a4.95 4.95 0 1 0 9.9 0 a4.95 4.95 0 1 0 -9.9 0zM319.58 145.65L321.56 143.67L307.53 129.64L305.56 131.62zM301.59 130.63 a4.95 4.95 0 1 0 9.9 0 a4.95 4.95 0 1 0 -9.9 0zM336.6 133.62L339.18 132.55L336.17 125.28L333.59 126.35zM329.93 125.82 a4.95 4.95 0 1 0 9.9 0 a4.95 4.95 0 1 0 -9.9 0zM356.92 129.02L359.71 129.02L359.71 116.74L356.92 116.74zM353.37 116.74 a4.95 4.95 0 1 0 9.9 0 a4.95 4.95 0 1 0 -9.9 0zM377.45 132.55L380.03 133.62L389.85 109.92L387.27 108.85zM383.61 109.39 a4.95 4.95 0 1 0 9.9 0 a4.95 4.95 0 1 0 -9.9 0zM395.07 143.67L397.05 145.65L413.64 129.06L411.66 127.08zM407.7 128.07 a4.95 4.95 0 1 0 9.9 0 a4.95 4.95 0 1 0 -9.9 0zM407.1 160.68L408.16 163.26L416.52 159.81L415.45 157.22zM411.03 158.51 a4.95 4.95 0 1 0 9.9 0 a4.95 4.95 0 1 0 -9.9 0zM304.92 182.4 a53.4 53.4 0 1 0 106.8 0 a53.4 53.4 0 1 0 -106.8 0z" fill="#488fdb"></path><path d="M360.66 129.06 A52.3952 52.3952 0 0 1 403.4 211.01M403.4 211.01 A106.7904 106.7904 0 0 0 360.66 129.06" fill="#2672c3" fill-rule="nonzero"></path><path d="M357.87 163.24 a10.68 10.68 0 1 0 21.36 0 a10.68 10.68 0 1 0 -21.36 0zM355.38 219.27 a10.68 10.68 0 1 0 21.36 0 a10.68 10.68 0 1 0 -21.36 0zM323.89 192.53 a10.68 10.68 0 1 0 21.36 0 a10.68 10.68 0 1 0 -21.36 0zM394 186.24 a8.54 8.54 0 1 0 17.08 0 a8.54 8.54 0 1 0 -17.08 0zM342.45 231.24 a2.67 2.67 0 1 0 5.34 0 a2.67 2.67 0 1 0 -5.34 0zM339.09 137.69 a6.94 6.94 0 1 0 13.88 0 a6.94 6.94 0 1 0 -13.88 0zM369.03 137.18 a5.34 5.34 0 1 0 10.68 0 a5.34 5.34 0 1 0 -10.68 0zM322.89 220.75 a3.2 3.2 0 1 0 6.4 0 a3.2 3.2 0 1 0 -6.4 0zM366.1 187.54 a2.67 2.67 0 1 0 5.34 0 a2.67 2.67 0 1 0 -5.34 0zM330.96 154.31 a2.67 2.67 0 1 0 5.34 0 a2.67 2.67 0 1 0 -5.34 0z" fill="#2672c3" fill-rule="nonzero"></path><path d="M752.57 99.53L752.57 101.4L762.63 101.4L762.63 99.53zM759.33 100.46 a3.3 3.3 0 1 0 6.6 0 a3.3 3.3 0 1 0 -6.6 0zM750.22 113.22L749.5 114.94L754.67 117.08L755.38 115.36zM751.73 116.22 a3.3 3.3 0 1 0 6.6 0 a3.3 3.3 0 1 0 -6.6 0zM742.81 124.97L741.49 126.29L747.12 131.92L748.44 130.6zM744.48 131.26 a3.3 3.3 0 1 0 6.6 0 a3.3 3.3 0 1 0 -6.6 0zM731.46 132.98L729.74 133.7L735.93 148.65L737.66 147.93zM733.49 148.29 a3.3 3.3 0 1 0 6.6 0 a3.3 3.3 0 1 0 -6.6 0zM717.92 136.05L716.05 136.05L716.05 141L717.92 141zM713.68 141 a3.3 3.3 0 1 0 6.6 0 a3.3 3.3 0 1 0 -6.6 0zM704.23 133.7L702.51 132.98L695.9 148.92L697.63 149.63zM693.47 149.28 a3.3 3.3 0 1 0 6.6 0 a3.3 3.3 0 1 0 -6.6 0zM692.48 126.29L691.16 124.97L682.12 134.01L683.44 135.33zM679.48 134.67 a3.3 3.3 0 1 0 6.6 0 a3.3 3.3 0 1 0 -6.6 0zM684.47 114.94L683.75 113.22L671.08 118.47L671.79 120.19zM668.13 119.33 a3.3 3.3 0 1 0 6.6 0 a3.3 3.3 0 1 0 -6.6 0zM681.4 101.4L681.4 99.53L670.95 99.53L670.95 101.4zM667.65 100.46 a3.3 3.3 0 1 0 6.6 0 a3.3 3.3 0 1 0 -6.6 0zM683.75 87.71L684.47 85.99L678.78 83.63L678.07 85.35zM675.13 84.49 a3.3 3.3 0 1 0 6.6 0 a3.3 3.3 0 1 0 -6.6 0zM691.16 75.96L692.48 74.64L682 64.16L680.68 65.47zM678.04 64.82 a3.3 3.3 0 1 0 6.6 0 a3.3 3.3 0 1 0 -6.6 0zM702.51 67.95L704.23 67.23L699.73 56.38L698.01 57.09zM695.57 56.73 a3.3 3.3 0 1 0 6.6 0 a3.3 3.3 0 1 0 -6.6 0zM716.05 64.88L717.92 64.88L717.92 51.37L716.05 51.37zM713.68 51.37 a3.3 3.3 0 1 0 6.6 0 a3.3 3.3 0 1 0 -6.6 0zM729.74 67.23L731.46 67.95L733.37 63.35L731.64 62.64zM729.2 63 a3.3 3.3 0 1 0 6.6 0 a3.3 3.3 0 1 0 -6.6 0zM741.49 74.64L742.81 75.96L750.33 68.44L749.01 67.12zM746.37 67.78 a3.3 3.3 0 1 0 6.6 0 a3.3 3.3 0 1 0 -6.6 0zM749.5 85.99L750.22 87.71L763.81 82.08L763.09 80.36zM760.15 81.22 a3.3 3.3 0 1 0 6.6 0 a3.3 3.3 0 1 0 -6.6 0zM681.38 100.46 a35.6 35.6 0 1 0 71.2 0 a35.6 35.6 0 1 0 -71.2 0z" fill="#488fdb"></path><path d="M694.42 72.93 A34.5968 34.5968 0 0 1 752.1 94.62M752.1 94.62 A71.1936 71.1936 0 0 0 694.42 72.93" fill="#2672c3" fill-rule="nonzero"></path><path d="M695.36 89.77 a7.12 7.12 0 1 0 14.24 0 a7.12 7.12 0 1 0 -14.24 0zM714.96 116.74 a7.12 7.12 0 1 0 14.24 0 a7.12 7.12 0 1 0 -14.24 0zM746.1 85.55 a1.42 1.42 0 1 0 2.84 0 a1.42 1.42 0 1 0 -2.84 0zM691.71 124.66 a1.42 1.42 0 1 0 2.84 0 a1.42 1.42 0 1 0 -2.84 0zM697.83 110.95 a5.34 5.34 0 1 0 10.68 0 a5.34 5.34 0 1 0 -10.68 0zM733.27 104.26 a7.12 7.12 0 1 0 14.24 0 a7.12 7.12 0 1 0 -14.24 0zM682.2 93.65 a3.2 3.2 0 1 0 6.4 0 a3.2 3.2 0 1 0 -6.4 0zM733.45 82.1 a2.85 2.85 0 1 0 5.7 0 a2.85 2.85 0 1 0 -5.7 0zM703.99 124.9 a1.42 1.42 0 1 0 2.84 0 a1.42 1.42 0 1 0 -2.84 0zM721.57 132.4 a1.42 1.42 0 1 0 2.84 0 a1.42 1.42 0 1 0 -2.84 0z" fill="#2672c3" fill-rule="nonzero"></path><path d="M1320.92 369.04L1320.92 372.77L1333.63 372.77L1333.63 369.04zM1327.03 370.9 a6.6 6.6 0 1 0 13.2 0 a6.6 6.6 0 1 0 -13.2 0zM1316.21 396.42L1314.79 399.86L1347.09 413.24L1348.52 409.8zM1341.21 411.52 a6.6 6.6 0 1 0 13.2 0 a6.6 6.6 0 1 0 -13.2 0zM1301.39 419.91L1298.75 422.54L1306.09 429.88L1308.73 427.25zM1300.81 428.57 a6.6 6.6 0 1 0 13.2 0 a6.6 6.6 0 1 0 -13.2 0zM1278.71 435.94L1275.26 437.37L1278.67 445.6L1282.12 444.17zM1273.79 444.89 a6.6 6.6 0 1 0 13.2 0 a6.6 6.6 0 1 0 -13.2 0zM1251.61 442.07L1247.88 442.07L1247.88 462.26L1251.61 462.26zM1243.15 462.26 a6.6 6.6 0 1 0 13.2 0 a6.6 6.6 0 1 0 -13.2 0zM1224.23 437.37L1220.79 435.94L1216.89 445.36L1220.33 446.79zM1212.01 446.08 a6.6 6.6 0 1 0 13.2 0 a6.6 6.6 0 1 0 -13.2 0zM1200.74 422.54L1198.11 419.91L1176.53 441.48L1179.17 444.12zM1171.25 442.8 a6.6 6.6 0 1 0 13.2 0 a6.6 6.6 0 1 0 -13.2 0zM1184.71 399.86L1183.28 396.42L1156.08 407.69L1157.5 411.13zM1150.19 409.41 a6.6 6.6 0 1 0 13.2 0 a6.6 6.6 0 1 0 -13.2 0zM1178.58 372.77L1178.58 369.04L1156.51 369.04L1156.51 372.77zM1149.91 370.9 a6.6 6.6 0 1 0 13.2 0 a6.6 6.6 0 1 0 -13.2 0zM1183.28 345.39L1184.71 341.95L1171.98 336.67L1170.55 340.12zM1164.67 338.39 a6.6 6.6 0 1 0 13.2 0 a6.6 6.6 0 1 0 -13.2 0zM1198.11 321.9L1200.74 319.26L1177.67 296.19L1175.03 298.82zM1169.75 297.51 a6.6 6.6 0 1 0 13.2 0 a6.6 6.6 0 1 0 -13.2 0zM1220.79 305.86L1224.23 304.44L1213.57 278.7L1210.13 280.12zM1205.25 279.41 a6.6 6.6 0 1 0 13.2 0 a6.6 6.6 0 1 0 -13.2 0zM1247.88 299.73L1251.61 299.73L1251.61 288.08L1247.88 288.08zM1243.15 288.08 a6.6 6.6 0 1 0 13.2 0 a6.6 6.6 0 1 0 -13.2 0zM1275.26 304.44L1278.71 305.86L1282.56 296.56L1279.12 295.13zM1274.24 295.85 a6.6 6.6 0 1 0 13.2 0 a6.6 6.6 0 1 0 -13.2 0zM1298.75 319.26L1301.39 321.9L1308.93 314.36L1306.29 311.72zM1301.01 313.04 a6.6 6.6 0 1 0 13.2 0 a6.6 6.6 0 1 0 -13.2 0zM1314.79 341.95L1316.21 345.39L1342.94 334.32L1341.51 330.87zM1335.63 332.6 a6.6 6.6 0 1 0 13.2 0 a6.6 6.6 0 1 0 -13.2 0zM1178.56 370.9 a71.19 71.19 0 1 0 142.38 0 a71.19 71.19 0 1 0 -142.38 0z" fill="#488fdb"></path><path d="M1223.02 436.89 A70.1936 70.1936 0 0 1 1205.85 314.86M1205.85 314.86 A142.3872 142.3872 0 0 0 1223.02 436.89" fill="#2672c3" fill-rule="nonzero"></path><path d="M1243.93 404.72 a14.24 14.24 0 1 0 28.48 0 a14.24 14.24 0 1 0 -28.48 0zM1311.39 349.86 a2.85 2.85 0 1 0 5.7 0 a2.85 2.85 0 1 0 -5.7 0zM1225.15 433.62 a4.98 4.98 0 1 0 9.96 0 a4.98 4.98 0 1 0 -9.96 0zM1183.21 369.72 a14.24 14.24 0 1 0 28.48 0 a14.24 14.24 0 1 0 -28.48 0zM1221.63 397.56 a4.27 4.27 0 1 0 8.54 0 a4.27 4.27 0 1 0 -8.54 0zM1225.15 323.69 a14.24 14.24 0 1 0 28.48 0 a14.24 14.24 0 1 0 -28.48 0zM1262.91 344.15 a13.53 13.53 0 1 0 27.06 0 a13.53 13.53 0 1 0 -27.06 0zM1301.46 370.87 a4.98 4.98 0 1 0 9.96 0 a4.98 4.98 0 1 0 -9.96 0zM1203.15 421.54 a4.98 4.98 0 1 0 9.96 0 a4.98 4.98 0 1 0 -9.96 0zM1231.15 377.76 a2.85 2.85 0 1 0 5.7 0 a2.85 2.85 0 1 0 -5.7 0z" fill="#2672c3" fill-rule="nonzero"></path><path d="M779.05 294.19L779.05 296.06L789.05 296.06L789.05 294.19zM785.75 295.12 a3.3 3.3 0 1 0 6.6 0 a3.3 3.3 0 1 0 -6.6 0zM776.7 307.88L775.98 309.6L791.92 316.2L792.63 314.48zM788.98 315.34 a3.3 3.3 0 1 0 6.6 0 a3.3 3.3 0 1 0 -6.6 0zM769.29 319.63L767.97 320.95L773.24 326.21L774.55 324.9zM770.59 325.55 a3.3 3.3 0 1 0 6.6 0 a3.3 3.3 0 1 0 -6.6 0zM757.94 327.64L756.22 328.36L761.38 340.81L763.1 340.1zM758.94 340.45 a3.3 3.3 0 1 0 6.6 0 a3.3 3.3 0 1 0 -6.6 0zM744.4 330.71L742.53 330.71L742.53 336.21L744.4 336.21zM740.16 336.21 a3.3 3.3 0 1 0 6.6 0 a3.3 3.3 0 1 0 -6.6 0zM730.71 328.36L728.99 327.64L724.62 338.18L726.34 338.89zM722.18 338.53 a3.3 3.3 0 1 0 6.6 0 a3.3 3.3 0 1 0 -6.6 0zM718.96 320.95L717.64 319.63L713.5 323.77L714.82 325.09zM710.86 324.43 a3.3 3.3 0 1 0 6.6 0 a3.3 3.3 0 1 0 -6.6 0zM710.95 309.6L710.23 307.88L702.07 311.26L702.79 312.98zM699.13 312.12 a3.3 3.3 0 1 0 6.6 0 a3.3 3.3 0 1 0 -6.6 0zM707.88 296.06L707.88 294.19L697.03 294.19L697.03 296.06zM693.73 295.12 a3.3 3.3 0 1 0 6.6 0 a3.3 3.3 0 1 0 -6.6 0zM710.23 282.37L710.95 280.65L706.55 278.82L705.83 280.55zM702.89 279.69 a3.3 3.3 0 1 0 6.6 0 a3.3 3.3 0 1 0 -6.6 0zM717.64 270.62L718.96 269.3L707.6 257.95L706.29 259.27zM703.65 258.61 a3.3 3.3 0 1 0 6.6 0 a3.3 3.3 0 1 0 -6.6 0zM728.99 262.61L730.71 261.89L728.24 255.92L726.51 256.64zM724.07 256.28 a3.3 3.3 0 1 0 6.6 0 a3.3 3.3 0 1 0 -6.6 0zM742.53 259.54L744.4 259.54L744.4 246.87L742.53 246.87zM740.16 246.87 a3.3 3.3 0 1 0 6.6 0 a3.3 3.3 0 1 0 -6.6 0zM756.22 261.89L757.94 262.61L762.42 251.81L760.69 251.09zM758.26 251.45 a3.3 3.3 0 1 0 6.6 0 a3.3 3.3 0 1 0 -6.6 0zM767.97 269.3L769.29 270.62L772.62 267.29L771.3 265.97zM768.66 266.63 a3.3 3.3 0 1 0 6.6 0 a3.3 3.3 0 1 0 -6.6 0zM775.98 280.65L776.7 282.37L786.15 278.45L785.43 276.73zM782.49 277.59 a3.3 3.3 0 1 0 6.6 0 a3.3 3.3 0 1 0 -6.6 0zM707.86 295.12 a35.6 35.6 0 1 0 71.2 0 a35.6 35.6 0 1 0 -71.2 0z" fill="#488fdb"></path><path d="M779.06 294.99 A34.5968 34.5968 0 0 1 725.84 326.05M725.84 326.05 A71.1936 71.1936 0 0 0 779.06 294.99" fill="#2672c3" fill-rule="nonzero"></path><path d="M712.37 310.02 a7.12 7.12 0 1 0 14.24 0 a7.12 7.12 0 1 0 -14.24 0zM754.67 273.94 a7.12 7.12 0 1 0 14.24 0 a7.12 7.12 0 1 0 -14.24 0zM737.71 316.96 a7.12 7.12 0 1 0 14.24 0 a7.12 7.12 0 1 0 -14.24 0zM735.45 300.09 a3.56 3.56 0 1 0 7.12 0 a3.56 3.56 0 1 0 -7.12 0zM708.8 287.96 a5.7 5.7 0 1 0 11.4 0 a5.7 5.7 0 1 0 -11.4 0zM756.49 295.85 a7.12 7.12 0 1 0 14.24 0 a7.12 7.12 0 1 0 -14.24 0zM735.88 273.64 a5.7 5.7 0 1 0 11.4 0 a5.7 5.7 0 1 0 -11.4 0zM757.77 325.39 a1.42 1.42 0 1 0 2.84 0 a1.42 1.42 0 1 0 -2.84 0zM729.29 284.13 a1.78 1.78 0 1 0 3.56 0 a1.78 1.78 0 1 0 -3.56 0zM767.87 311.03 a2.14 2.14 0 1 0 4.28 0 a2.14 2.14 0 1 0 -4.28 0z" fill="#2672c3" fill-rule="nonzero"></path><path d="M1353.77 84.52L1353.77 86.85L1368.15 86.85L1368.15 84.52zM1364.02 85.68 a4.13 4.13 0 1 0 8.26 0 a4.13 4.13 0 1 0 -8.26 0zM1350.83 101.63L1349.94 103.78L1357.26 106.82L1358.15 104.67zM1353.58 105.74 a4.13 4.13 0 1 0 8.26 0 a4.13 4.13 0 1 0 -8.26 0zM1341.56 116.31L1339.92 117.96L1353.34 131.38L1354.98 129.73zM1350.03 130.56 a4.13 4.13 0 1 0 8.26 0 a4.13 4.13 0 1 0 -8.26 0zM1327.39 126.33L1325.23 127.22L1329.44 137.37L1331.59 136.48zM1326.38 136.92 a4.13 4.13 0 1 0 8.26 0 a4.13 4.13 0 1 0 -8.26 0zM1310.45 130.17L1308.12 130.17L1308.12 140.94L1310.45 140.94zM1305.16 140.94 a4.13 4.13 0 1 0 8.26 0 a4.13 4.13 0 1 0 -8.26 0zM1293.34 127.22L1291.19 126.33L1283.93 143.87L1286.08 144.76zM1280.87 144.31 a4.13 4.13 0 1 0 8.26 0 a4.13 4.13 0 1 0 -8.26 0zM1278.66 117.96L1277.01 116.31L1270.7 122.62L1272.35 124.27zM1267.4 123.44 a4.13 4.13 0 1 0 8.26 0 a4.13 4.13 0 1 0 -8.26 0zM1268.64 103.78L1267.75 101.63L1250.73 108.68L1251.62 110.83zM1247.04 109.76 a4.13 4.13 0 1 0 8.26 0 a4.13 4.13 0 1 0 -8.26 0zM1264.81 86.85L1264.81 84.52L1257.15 84.52L1257.15 86.85zM1253.02 85.68 a4.13 4.13 0 1 0 8.26 0 a4.13 4.13 0 1 0 -8.26 0zM1267.75 69.74L1268.64 67.59L1251.68 60.56L1250.79 62.72zM1247.11 61.64 a4.13 4.13 0 1 0 8.26 0 a4.13 4.13 0 1 0 -8.26 0zM1277.01 55.06L1278.66 53.41L1271.69 46.44L1270.04 48.08zM1266.73 47.26 a4.13 4.13 0 1 0 8.26 0 a4.13 4.13 0 1 0 -8.26 0zM1291.19 45.04L1293.34 44.14L1287.31 29.58L1285.16 30.47zM1282.1 30.03 a4.13 4.13 0 1 0 8.26 0 a4.13 4.13 0 1 0 -8.26 0zM1308.12 41.2L1310.45 41.2L1310.45 29.03L1308.12 29.03zM1305.16 29.03 a4.13 4.13 0 1 0 8.26 0 a4.13 4.13 0 1 0 -8.26 0zM1325.23 44.14L1327.39 45.04L1331.15 35.95L1329 35.06zM1325.94 35.51 a4.13 4.13 0 1 0 8.26 0 a4.13 4.13 0 1 0 -8.26 0zM1339.92 53.41L1341.56 55.06L1346.94 49.68L1345.29 48.03zM1341.98 48.86 a4.13 4.13 0 1 0 8.26 0 a4.13 4.13 0 1 0 -8.26 0zM1349.94 67.59L1350.83 69.74L1369.21 62.12L1368.32 59.97zM1364.64 61.05 a4.13 4.13 0 1 0 8.26 0 a4.13 4.13 0 1 0 -8.26 0zM1264.79 85.68 a44.5 44.5 0 1 0 89 0 a44.5 44.5 0 1 0 -89 0z" fill="#488fdb"></path><path d="M1301.99 129.58 A43.496 43.496 0 0 1 1274.86 57.49M1274.86 57.49 A88.992 88.992 0 0 0 1301.99 129.58" fill="#2672c3" fill-rule="nonzero"></path><path d="M1299.69 96.23 a8.9 8.9 0 1 0 17.8 0 a8.9 8.9 0 1 0 -17.8 0zM1276.84 81.06 a8.9 8.9 0 1 0 17.8 0 a8.9 8.9 0 1 0 -17.8 0zM1291.09 50.28 a7.12 7.12 0 1 0 14.24 0 a7.12 7.12 0 1 0 -14.24 0zM1280.43 108.07 a6.67 6.67 0 1 0 13.34 0 a6.67 6.67 0 1 0 -13.34 0zM1301.47 70.71 a6.23 6.23 0 1 0 12.46 0 a6.23 6.23 0 1 0 -12.46 0zM1340.51 103.07 a4.45 4.45 0 1 0 8.9 0 a4.45 4.45 0 1 0 -8.9 0zM1327.39 73.47 a8.9 8.9 0 1 0 17.8 0 a8.9 8.9 0 1 0 -17.8 0zM1298.62 121.43 a6.67 6.67 0 1 0 13.34 0 a6.67 6.67 0 1 0 -13.34 0zM1269.45 96.74 a2.67 2.67 0 1 0 5.34 0 a2.67 2.67 0 1 0 -5.34 0zM1324.2 113.98 a5.34 5.34 0 1 0 10.68 0 a5.34 5.34 0 1 0 -10.68 0z" fill="#2672c3" fill-rule="nonzero"></path></g><defs><mask id="SvgjsMask1000"><rect width="1440" height="560" fill="#ffffff"></rect></mask></defs></svg>