<svg version="1.1" id="Layer_1" xmlns="http://www.w3.org/2000/svg" xmlns:xlink="http://www.w3.org/1999/xlink" x="0px" y="0px"
	 width="100%" viewBox="0 0 86 75"  xml:space="preserve">
<path fill="#F5FAFA" opacity="1.000000" stroke="none" 
	d="
M37.086243,31.008131 
	C34.624622,31.007853 32.632957,31.007853 30.600796,31.007853 
	C29.831882,29.516102 29.103188,28.102377 27.698986,25.378119 
	C34.449371,25.250751 40.755104,24.734768 46.998482,25.151957 
	C51.241390,25.435472 54.688019,31.026579 54.244598,35.377205 
	C54.199623,35.818474 54.222641,36.288910 54.324635,36.719635 
	C56.216187,44.707848 54.951618,47.063839 46.730946,50.019150 
	C42.500290,51.540058 38.151501,52.732342 33.209435,54.274971 
	C33.209435,48.255928 33.209435,43.827053 33.209435,37.434875 
	C36.436855,40.198380 38.701595,42.137577 41.980083,44.944801 
	C47.361637,45.352707 49.139351,43.745476 49.044678,37.216164 
	C48.981216,32.839409 47.429001,30.306421 42.538841,30.977072 
	C40.907219,31.200838 39.218708,31.009815 37.086243,31.008131 
z"/>
</svg>